<svg width="62" height="47" viewBox="0 0 62 47" xmlns="http://www.w3.org/2000/svg" xmlns:xlink="http://www.w3.org/1999/xlink"><svg width="28.65" height="34.65" viewBox="0 0 28.65 34.65" id="maguwo-logo" x="33"><defs><style>.acls-1{fill:none;stroke:#202242;stroke-width:2.65px;fill-rule:evenodd}</style></defs><path class="acls-1" d="M24.13 33.325H4.525a3.183 3.183 0 0 1-3.2-3.163v-21.4a.814.814 0 0 1 .1-.386L4.969 1.76a.832.832 0 0 1 .732-.435h17.248a.832.832 0 0 1 .735.438l3.544 6.616a.814.814 0 0 1 .1.386v21.4a3.183 3.183 0 0 1-3.198 3.16zM22.448 2.971H6.202L3.464 8.082h21.722zm3.213 6.76H2.989v4.157h22.672V9.732zm0 5.805H2.989v4.271h22.672v-4.27zm0 5.92H2.989v4.3h22.672v-4.3zm0 5.948H2.989v2.757a1.525 1.525 0 0 0 1.531 1.516h19.61a1.525 1.525 0 0 0 1.531-1.516v-2.756zm-2.674 2.89a.7.7 0 1 1 .712-.7.71.71 0 0 1-.712.701zm0-.86a.155.155 0 1 0 .157.155.157.157 0 0 0-.157-.155zm-2.716.86a.7.7 0 1 1 .712-.7.709.709 0 0 1-.712.701zm0-.86a.155.155 0 1 0 .157.155.157.157 0 0 0-.157-.155zm-2.751.86a.7.7 0 1 1 .712-.7.709.709 0 0 1-.707.701zm0-.86a.155.155 0 1 0 .157.155.157.157 0 0 0-.152-.155zm-12.134 1.86a1.7 1.7 0 1 1 1.721-1.7 1.715 1.715 0 0 1-1.721 1.7zm0-2.585a.88.88 0 1 0 .889.88.886.886 0 0 0-.889-.88zm0-6.926a1.7 1.7 0 1 1-1.721 1.7 1.715 1.715 0 0 1 1.721-1.7zm0 2.585a.88.88 0 1 0-.889-.88.886.886 0 0 0 .889.88zm12.139-1.585a.7.7 0 1 1-.711.7.709.709 0 0 1 .711-.7zm0 .86a.155.155 0 1 0-.157-.155.157.157 0 0 0 .157.155zm2.751-.86a.7.7 0 1 1-.711.7.709.709 0 0 1 .706-.7zm0 .86a.155.155 0 1 0-.157-.155.156.156 0 0 0 .152.155zm2.716-.86a.7.7 0 1 1-.712.7.709.709 0 0 1 .707-.7zm0 .86a.155.155 0 1 0-.157-.155.156.156 0 0 0 .152.155zm-17.6-7.621a1.7 1.7 0 1 1-1.721 1.7 1.715 1.715 0 0 1 1.715-1.697zm0 2.585a.88.88 0 1 0-.889-.88.886.886 0 0 0 .883.88zm12.133-1.582a.7.7 0 1 1-.711.7.709.709 0 0 1 .711-.7zm0 .86a.155.155 0 1 0-.157-.155.157.157 0 0 0 .157.152zm2.751-.86a.7.7 0 1 1-.711.7.709.709 0 0 1 .706-.7zm0 .86a.155.155 0 1 0-.157-.155.156.156 0 0 0 .152.152zm2.716-.86a.7.7 0 1 1-.712.7.709.709 0 0 1 .707-.7zm0 .86a.155.155 0 1 0-.157-.155.156.156 0 0 0 .152.152zm-17.6-7.728a1.7 1.7 0 1 1-1.721 1.7 1.715 1.715 0 0 1 1.715-1.703zm0 2.585a.88.88 0 1 0-.889-.88.886.886 0 0 0 .883.877zm12.133-1.588a.7.7 0 1 1-.711.7.709.709 0 0 1 .711-.7zm0 .86a.155.155 0 1 0-.157-.155.157.157 0 0 0 .157.155zm2.751-.86a.7.7 0 1 1-.711.7.709.709 0 0 1 .706-.7zm0 .86a.155.155 0 1 0-.157-.155.156.156 0 0 0 .152.155zm2.716-.86a.7.7 0 1 1-.712.7.709.709 0 0 1 .707-.7zm0 .86a.155.155 0 1 0-.157-.155.156.156 0 0 0 .152.155z"/></svg><svg width="33" height="47" viewBox="0 0 33 47" id="map-point"><defs><style>.bcls-1{fill:#ffe13e;fill-rule:evenodd}</style></defs><path class="bcls-1" d="M16.5 0C7.556 0 0 7.71 0 16.83c0 8.65 14.713 28.73 15.339 29.58a1.438 1.438 0 0 0 2.323 0C18.288 45.56 33 25.48 33 16.83 33 7.71 25.444 0 16.5 0zm0 7.2a9.64 9.64 0 1 1-9.688 9.64A9.672 9.672 0 0 1 16.5 7.2z"/></svg></svg>